<?xml version="1.0" encoding="UTF-8"?>
<svg xmlns="http://www.w3.org/2000/svg" id="Layer_1" data-name="Layer 1" viewBox="0 0 24 24">
  <path d="m11.994,1C4.929,1.044,1,5.018,1,12.019c0,6.843,3.933,10.94,11.006,10.981,7.162-.042,10.861-3.737,10.994-11.017-.122-7.037-4.026-10.938-11.006-10.983Zm.006,18c-.827,0-1.497-.67-1.497-1.497s.67-1.497,1.497-1.497,1.497.67,1.497,1.497-.67,1.497-1.497,1.497Zm1-6.12v.652c0,.552-.448,1-1,1s-1-.448-1-1v-1.567c0-.55.444-.997.994-1,1.489-.009,2.08-.603,2.107-2.12-.025-1.439-.656-2.073-2.108-2.083-1.458.009-2.068.624-2.095,2.119-.01.553-.504.977-1.018.982-.552-.01-.992-.466-.982-1.018.046-2.579,1.539-4.067,4.095-4.084,2.533.017,4.064,1.544,4.108,4.084-.042,2.292-1.133,3.687-3.102,4.033Z"/>
</svg>
